<svg width="17" height="11" viewBox="0 0 17 11" fill="currentColor" xmlns="http://www.w3.org/2000/svg">
<path d="M5.154 0C5.615 0 6.041 0.0350001 6.432 0.14C6.822 0.21 7.143 0.356 7.428 0.531C7.714 0.707 7.925 0.957 8.069 1.278C8.209 1.598 8.285 1.989 8.285 2.415C8.285 2.911 8.179 3.337 7.929 3.657C7.714 3.977 7.363 4.263 6.932 4.474C7.538 4.65 7.999 4.97 8.28 5.396C8.561 5.822 8.741 6.353 8.741 6.959C8.741 7.455 8.636 7.881 8.456 8.237C8.27644 8.59533 8.007 8.90095 7.674 9.124C7.354 9.339 6.963 9.514 6.537 9.62C6.1197 9.7302 5.69056 9.7893 5.259 9.796L0.5 9.803V0H5.154ZM4.869 3.978C5.259 3.978 5.579 3.873 5.826 3.693C6.072 3.513 6.181 3.196 6.181 2.806C6.181 2.59 6.146 2.38 6.076 2.239C6.00023 2.0961 5.8903 1.97414 5.756 1.884C5.61093 1.8049 5.45587 1.7457 5.295 1.708C5.119 1.673 4.939 1.673 4.728 1.673H2.67V3.983C2.67 3.978 4.87 3.978 4.87 3.978H4.869ZM4.974 8.171C5.189 8.171 5.4 8.136 5.58 8.101C5.756 8.066 5.936 7.995 6.076 7.885C6.216 7.775 6.326 7.67 6.432 7.495C6.502 7.319 6.572 7.104 6.572 6.854C6.572 6.358 6.432 6.002 6.146 5.752C5.861 5.537 5.47 5.432 5.009 5.432H2.67V8.166H4.975V8.171H4.974ZM11.832 8.136C12.118 8.421 12.543 8.562 13.11 8.562C13.5 8.562 13.856 8.456 14.142 8.276C14.427 8.061 14.602 7.85 14.672 7.636H16.412C16.126 8.487 15.7 9.093 15.134 9.484C14.568 9.839 13.891 10.05 13.074 10.05C12.5516 10.0523 12.0334 9.95561 11.547 9.765C11.1092 9.60226 10.7186 9.33359 10.41 8.983C10.0808 8.65608 9.83644 8.25378 9.698 7.811C9.523 7.35 9.448 6.854 9.448 6.283C9.448 5.752 9.518 5.251 9.698 4.79C9.878 4.33 10.124 3.938 10.445 3.583C10.765 3.263 11.156 2.977 11.582 2.801C12.057 2.61188 12.5637 2.51515 13.075 2.516C13.681 2.516 14.212 2.621 14.673 2.871C15.133 3.121 15.49 3.403 15.775 3.829C16.06 4.219 16.271 4.68 16.416 5.177C16.486 5.673 16.521 6.173 16.486 6.74H11.336C11.336 7.32 11.546 7.85 11.832 8.136ZM14.072 4.404C13.822 4.154 13.43 4.013 12.969 4.013C12.649 4.013 12.403 4.083 12.188 4.189C11.973 4.294 11.832 4.439 11.692 4.579C11.5613 4.71625 11.4743 4.88923 11.442 5.076C11.406 5.251 11.372 5.396 11.372 5.536H14.568C14.498 5.01 14.318 4.654 14.071 4.404H14.072ZM10.945 0.676H14.923V1.633H10.945V0.676Z"/>
</svg>
