<svg width="98" height="38" viewBox="0 0 98 38" fill="currentColor" xmlns="http://www.w3.org/2000/svg">
<path fill-rule="evenodd" clip-rule="evenodd" d="M11.5676 0.0524138C12.8154 0.0786207 13.7122 0.170345 14.2321 0.314483C14.661 0.432414 15.4279 0.72069 15.9218 0.956552C16.4156 1.20552 17.1825 1.63793 17.6114 1.92621C18.0403 2.21448 18.7682 2.83034 19.2101 3.28897C19.665 3.74759 20.3149 4.5469 20.6398 5.04483C20.9647 5.54276 21.4326 6.43379 21.6536 7.01034C21.8875 7.5869 22.1735 8.51724 22.2775 9.06759C22.4594 9.93241 22.4854 11.3607 22.4854 26.731L22.8103 27.0586C22.9923 27.2421 23.2263 27.3862 23.3302 27.3862C23.4342 27.3862 23.6422 27.2683 23.7851 27.1241C24.0451 26.8621 24.0451 26.6917 24.0451 0H45.1008V10.6138L34.7679 10.6793L34.7029 19.5897C34.6249 28.2248 34.6249 28.5262 34.352 29.4828C34.196 30.02 33.9101 30.8193 33.7151 31.2517C33.5332 31.6841 33.1692 32.3655 32.9093 32.7586C32.6623 33.1517 32.1814 33.7938 31.8565 34.1869C31.5316 34.58 30.8427 35.209 30.3488 35.6021C29.8549 36.0083 28.9061 36.5848 28.2692 36.8862C27.6324 37.2007 26.7485 37.5545 26.3196 37.6724C25.8777 37.8034 24.7859 37.9214 23.7851 37.9607C22.4334 38.0131 21.7966 37.9869 20.9907 37.8166C20.4188 37.6986 19.509 37.4103 18.9761 37.2007C18.4432 36.9779 17.5854 36.5324 17.0915 36.2048C16.5976 35.8641 15.8438 35.2745 15.4149 34.8683C14.9989 34.4621 14.4011 33.7807 14.1021 33.3483C13.8032 32.9159 13.3353 32.1297 13.0753 31.6055C12.8154 31.0945 12.4904 30.2297 12.3605 29.7055C12.2175 29.1945 12.0745 28.4869 11.9576 27.5172H10.5279V38H0L0.0649867 9.1069L0.493899 7.86207C0.727851 7.18069 1.16976 6.18483 1.4687 5.64759C1.76764 5.11034 2.48249 4.18 3.05438 3.56414C3.62626 2.96138 4.53607 2.16207 5.06897 1.80828C5.60186 1.46759 6.51167 0.995862 7.08355 0.773103C7.65544 0.550345 8.47427 0.288276 8.90318 0.196552C9.42308 0.0655172 10.3069 0.0262069 11.5676 0.0524138ZM10.5149 14.0469L10.5279 16.9034H12.0875C12.1005 11.3607 12.0745 11.0462 11.8666 10.8497C11.7366 10.7186 11.4767 10.6138 11.2817 10.6138C11.0607 10.6138 10.8528 10.7317 10.7228 10.9021C10.5279 11.151 10.5019 11.5966 10.5149 14.0469ZM58.0851 0H60.1777V3.47241C60.1777 6.26345 60.2167 7.03655 60.3727 7.40345C60.5156 7.73103 60.7236 7.92759 61.1135 8.11103C61.5684 8.30759 61.7504 8.33379 62.0623 8.22896C62.2703 8.15034 62.5822 7.9669 62.7512 7.80965C62.9202 7.66552 63.1021 7.32483 63.1671 7.07586C63.2451 6.8269 63.2971 5.12345 63.2971 0H65.3377L65.3247 3.69517C65.3117 7.14138 65.2987 7.44276 65.0517 7.9931C64.8958 8.32069 64.5188 8.84483 64.2069 9.15931C63.882 9.47379 63.2711 9.91931 62.8422 10.1683C62.4133 10.4041 61.9064 10.6138 61.6984 10.6138C61.5034 10.6138 60.9836 10.391 60.5416 10.129C60.0867 9.85379 59.5279 9.46069 59.2809 9.23793C59.0469 9.02828 58.696 8.58276 58.1631 7.66552L58.0851 0ZM66.9363 0H69.0159V10.6138H66.9363V0ZM71.0955 0H73.305V8.38621H77.0743V10.6138H71.0955V0ZM95.9204 8.25517H98V10.6138H95.9204V8.25517ZM36.2626 27.3862H45.1008V38H36.2626V27.3862ZM53.0942 0.170345C54.095 0.196552 54.3549 0.262069 54.8878 0.563448C55.2647 0.786207 55.6416 1.1531 55.8886 1.5331C56.1095 1.8869 56.3435 2.43724 56.4085 2.77793C56.4865 3.13172 56.5385 5.03172 56.5385 10.6138H54.4589V6.94483H51.3395V10.6138H49.2599L49.2989 6.70897C49.3249 3.00069 49.3379 2.79103 49.6239 2.16207C49.7798 1.79517 50.1308 1.28414 50.4037 1.00897C50.6637 0.746897 51.1186 0.432414 51.4045 0.327586C51.7684 0.183448 52.2883 0.144138 53.0942 0.170345ZM51.4695 3.47241C51.4045 3.76069 51.3395 4.1931 51.3395 4.41586V4.84828H54.4589C54.4589 4.1931 54.3939 3.76069 54.3289 3.47241C54.2639 3.18414 54.069 2.81724 53.887 2.6469C53.6401 2.43724 53.3931 2.35862 52.9122 2.35862C52.4313 2.35862 52.1843 2.43724 51.9244 2.6469C51.7424 2.81724 51.5345 3.18414 51.4695 3.47241ZM82.3382 0.170345C83.326 0.196552 83.5989 0.262069 84.0928 0.550345C84.4178 0.733793 84.8337 1.11379 85.0286 1.38897C85.2106 1.67724 85.4706 2.22759 85.5745 2.62069C85.7435 3.19724 85.7825 4.03586 85.7825 10.6138H83.7029V6.94483H80.5835V10.6138H78.504L78.543 6.70897C78.569 3.82621 78.6339 2.69931 78.7639 2.35862C78.8549 2.10966 79.0629 1.71655 79.2058 1.49379C79.3618 1.25793 79.6607 0.943448 79.8687 0.773103C80.0897 0.602759 80.4666 0.393103 80.7135 0.301379C80.9995 0.196552 81.6233 0.144138 82.3382 0.170345ZM80.7135 3.36759C80.6485 3.64276 80.5835 4.08828 80.5835 4.35034V4.84828H83.7029C83.7029 4.33724 83.6509 3.89172 83.5729 3.53793C83.482 3.06621 83.339 2.80414 83.092 2.62069C82.8451 2.43724 82.5332 2.34552 82.1302 2.35862C81.7403 2.35862 81.4154 2.45034 81.1944 2.62069C80.9995 2.76483 80.7915 3.10552 80.7135 3.36759ZM89.5517 0.131034H96.0504V2.35862H93.8408V10.6138H91.7613V2.35862H89.5517V0.131034Z"/>
</svg>
