<svg width="40" height="27" viewBox="0 0 40 27" fill="currentColor" xmlns="http://www.w3.org/2000/svg">
<path fill-rule="evenodd" clip-rule="evenodd" d="M39.7954 13.5527C39.7954 13.177 39.6462 12.8166 39.3805 12.551C39.1148 12.2853 38.7545 12.136 38.3787 12.136H4.96525L13.8818 3.22236C14.0135 3.09064 14.118 2.93427 14.1892 2.76218C14.2605 2.59008 14.2972 2.40563 14.2972 2.21936C14.2972 2.03309 14.2605 1.84863 14.1892 1.67654C14.118 1.50444 14.0135 1.34807 13.8818 1.21636C13.75 1.08464 13.5937 0.980161 13.4216 0.908877C13.2495 0.837593 13.065 0.800903 12.8788 0.800903C12.6925 0.800903 12.508 0.837593 12.3359 0.908877C12.1638 0.980161 12.0075 1.08464 11.8758 1.21636L0.54242 12.5497C0.410491 12.6813 0.305819 12.8376 0.234401 13.0097C0.162983 13.1818 0.126221 13.3664 0.126221 13.5527C0.126221 13.739 0.162983 13.9235 0.234401 14.0957C0.305819 14.2678 0.410491 14.4241 0.54242 14.5557L11.8758 25.889C12.0075 26.0207 12.1638 26.1252 12.3359 26.1965C12.508 26.2678 12.6925 26.3045 12.8788 26.3045C13.065 26.3045 13.2495 26.2678 13.4216 26.1965C13.5937 26.1252 13.75 26.0207 13.8818 25.889C14.0135 25.7573 14.118 25.6009 14.1892 25.4288C14.2605 25.2568 14.2972 25.0723 14.2972 24.886C14.2972 24.6998 14.2605 24.5153 14.1892 24.3432C14.118 24.1711 14.0135 24.0147 13.8818 23.883L4.96525 14.9694H38.3787C38.7545 14.9694 39.1148 14.8201 39.3805 14.5544C39.6462 14.2888 39.7954 13.9284 39.7954 13.5527Z"/>
</svg>
