<svg width="20" height="21" viewBox="0 0 20 21" fill="currentColor" xmlns="http://www.w3.org/2000/svg">
<path fill-rule="evenodd" clip-rule="evenodd" d="M20 0.93868C20 0.717666 19.9122 0.505705 19.7559 0.349425C19.5997 0.193144 19.3877 0.105347 19.1667 0.105347H9.16669C8.94568 0.105347 8.73372 0.193144 8.57743 0.349425C8.42115 0.505705 8.33336 0.717666 8.33336 0.93868C8.33336 1.15969 8.42115 1.37166 8.57743 1.52794C8.73372 1.68422 8.94568 1.77201 9.16669 1.77201H17.155L0.243356 18.682C0.165876 18.7595 0.104416 18.8515 0.062484 18.9527C0.0205521 19.0539 -0.00102997 19.1624 -0.00102997 19.272C-0.00102997 19.3816 0.0205521 19.4901 0.062484 19.5913C0.104416 19.6926 0.165876 19.7845 0.243356 19.862C0.320836 19.9395 0.412818 20.001 0.51405 20.0429C0.615283 20.0848 0.723783 20.1064 0.833356 20.1064C0.942929 20.1064 1.05143 20.0848 1.15266 20.0429C1.25389 20.001 1.34588 19.9395 1.42336 19.862L18.3334 2.95035V10.9387C18.3334 11.1597 18.4212 11.3717 18.5774 11.5279C18.7337 11.6842 18.9457 11.772 19.1667 11.772C19.3877 11.772 19.5997 11.6842 19.7559 11.5279C19.9122 11.3717 20 11.1597 20 10.9387V0.93868Z"/>
</svg>
