<svg width="40" height="27" viewBox="0 0 40 27" fill="currentColor" xmlns="http://www.w3.org/2000/svg">
<path fill-rule="evenodd" clip-rule="evenodd" d="M0.204712 13.5527C0.204712 13.177 0.353967 12.8166 0.619644 12.551C0.88532 12.2853 1.24566 12.136 1.62138 12.136H35.0349L26.1184 3.22236C25.8524 2.95635 25.7029 2.59556 25.7029 2.21936C25.7029 1.84316 25.8524 1.48237 26.1184 1.21636C26.3844 0.950347 26.7452 0.800903 27.1214 0.800903C27.4976 0.800903 27.8584 0.950347 28.1244 1.21636L39.4577 12.5497C39.5896 12.6813 39.6943 12.8376 39.7657 13.0097C39.8371 13.1818 39.8739 13.3664 39.8739 13.5527C39.8739 13.739 39.8371 13.9235 39.7657 14.0957C39.6943 14.2678 39.5896 14.4241 39.4577 14.5557L28.1244 25.889C27.8584 26.155 27.4976 26.3045 27.1214 26.3045C26.7452 26.3045 26.3844 26.155 26.1184 25.889C25.8524 25.623 25.7029 25.2622 25.7029 24.886C25.7029 24.5098 25.8524 24.149 26.1184 23.883L35.0349 14.9694H1.62138C1.24566 14.9694 0.88532 14.8201 0.619644 14.5544C0.353967 14.2888 0.204712 13.9284 0.204712 13.5527V13.5527Z"/>
</svg>
