<svg width="52" height="60" viewBox="0 0 52 60" fill="none" xmlns="http://www.w3.org/2000/svg">
<path d="M47.1873 53.5186L25.9685 59.4717L4.80835 53.5264L0.0925293 0H51.907L47.1873 53.5186ZM10.323 19.4688H35.1179L34.5271 25.9326H10.9021L11.4832 32.2451H33.9646L33.2117 40.4316L25.9988 42.3262L25.9705 42.334L18.7468 40.4355L18.2849 35.4014H11.7732L12.6814 45.3125L25.9695 48.9014L25.9988 48.8936V48.8926L39.2751 45.3125L39.3728 44.2461L40.8972 27.6279L41.0554 25.9326L42.2263 13.1562H9.73315L10.323 19.4688Z" fill="#827DF8"/>
<path d="M47.1794 6.84375L43.1462 50.8184L25.9998 55.4443V48.8916L39.2751 45.3125L39.3728 44.2461L40.8972 27.6279L41.0554 25.9326L42.2263 13.1562H25.9998V6.84375H47.1794ZM33.9646 32.2451L33.2117 40.4316L25.9998 42.3252V32.2451H33.9646ZM35.1179 19.4688L34.5271 25.9326H25.9998V19.4688H35.1179Z" fill="#ACA8FA"/>
</svg>
