<svg width="39" height="59" viewBox="0 0 39 59" fill="none" xmlns="http://www.w3.org/2000/svg">
<path d="M0 9.70588C0 4.34824 4.34824 0 9.70588 0H19.4118V19.4118H9.70588C4.34824 19.4118 0 15.0635 0 9.70588Z" fill="#ACA8FA"/>
<path d="M19.4118 0H29.1177C34.4753 0 38.8235 4.34824 38.8235 9.70588C38.8235 15.0635 34.4753 19.4118 29.1177 19.4118H19.4118V0Z" fill="#827DF8"/>
<path d="M0 29.1176C0 23.76 4.34824 19.4118 9.70588 19.4118H19.4118V38.8235H9.70588C4.34824 38.8235 0 34.4753 0 29.1176Z" fill="#827DF8"/>
<path d="M38.8235 29.1176C38.8235 34.4753 34.4753 38.8235 29.1177 38.8235C23.76 38.8235 19.4118 34.4753 19.4118 29.1176C19.4118 23.76 23.76 19.4118 29.1177 19.4118C34.4753 19.4118 38.8235 23.76 38.8235 29.1176Z" fill="#ACA8FA"/>
<path d="M9.70588 58.2353C15.0635 58.2353 19.4118 53.8871 19.4118 48.5294V38.8235H9.70588C4.34824 38.8235 0 43.1718 0 48.5294C0 53.8871 4.34824 58.2353 9.70588 58.2353Z" fill="#ACA8FA"/>
</svg>
