<svg width="60" height="60" viewBox="0 0 60 60" fill="currentColor" xmlns="http://www.w3.org/2000/svg">
<path d="M55 0C57.7614 0 60 2.23858 60 5V55C60 57.7614 57.7614 60 55 60H5C2.23858 60 8.05346e-08 57.7614 0 55V5C0 2.23858 2.23858 8.0532e-08 5 0H55ZM50.0928 34.832C48.7141 34.8321 47.4827 35.0726 46.3994 35.5527C45.3163 36.0328 44.4634 36.7002 43.8418 37.5557C43.2263 38.4112 42.9216 39.4118 42.9277 40.5566C42.9216 41.9538 43.3806 43.0649 44.3037 43.8896C45.227 44.7145 46.4859 45.3212 48.0801 45.709L50.1387 46.2256C50.828 46.3918 51.4099 46.5772 51.8838 46.7803C52.3639 46.9834 52.7274 47.2293 52.9736 47.5186C53.226 47.8078 53.3525 48.1652 53.3525 48.5898C53.3525 49.0452 53.2134 49.4481 52.9365 49.7988C52.6595 50.1497 52.2684 50.4241 51.7637 50.6211C51.2653 50.8179 50.6777 50.916 50.001 50.916C49.3116 50.916 48.6924 50.8118 48.1445 50.6025C47.6029 50.3871 47.169 50.0699 46.8428 49.6514C46.5228 49.2267 46.341 48.6974 46.2979 48.0635H42.4297C42.4605 49.4237 42.7902 50.5651 43.418 51.4883C44.052 52.4054 44.9322 53.0986 46.0586 53.5664C47.1911 54.0341 48.5206 54.2676 50.0469 54.2676C51.5857 54.2676 52.8998 54.0368 53.9893 53.5752C55.0849 53.1074 55.9224 52.4517 56.501 51.6084C57.0856 50.759 57.3806 49.7557 57.3867 48.5986C57.3806 47.8108 57.2362 47.1123 56.9531 46.5029C56.6761 45.8936 56.285 45.3644 55.7803 44.915C55.2756 44.4657 54.6786 44.0871 53.9893 43.7793C53.2999 43.4715 52.5426 43.2247 51.7178 43.04L50.0195 42.6338C49.6071 42.5415 49.2186 42.431 48.8555 42.3018C48.4924 42.1664 48.1724 42.0095 47.8955 41.8311C47.6187 41.6465 47.4003 41.428 47.2402 41.1758C47.0864 40.9234 47.015 40.6276 47.0273 40.2891C47.0273 39.8828 47.145 39.5193 47.3789 39.1992C47.6189 38.8795 47.9632 38.6306 48.4121 38.4521C48.8614 38.2675 49.413 38.1748 50.0654 38.1748C51.0254 38.1748 51.7856 38.3807 52.3457 38.793C52.9058 39.2054 53.223 39.7845 53.2969 40.5293H57.1289C57.1104 39.4029 56.8084 38.4113 56.2236 37.5557C55.6389 36.7002 54.82 36.0328 53.7676 35.5527C52.7212 35.0726 51.4962 34.832 50.0928 34.832ZM35.7822 35.0908V48.2754C35.7822 48.8786 35.6922 49.3864 35.5137 49.7988C35.3352 50.2112 35.0742 50.5258 34.7295 50.7412C34.391 50.9505 33.9748 51.0547 33.4824 51.0547C33.0148 51.0546 32.6083 50.9619 32.2637 50.7773C31.9254 50.5865 31.6578 50.3155 31.4609 49.9648C31.2702 49.6079 31.1686 49.1801 31.1562 48.6816H27.1768C27.1706 49.9373 27.4388 50.9806 27.9805 51.8115C28.5221 52.6363 29.2544 53.252 30.1777 53.6582C31.107 54.0582 32.1408 54.2587 33.2793 54.2588C34.5594 54.2588 35.6831 54.0154 36.6494 53.5293C37.6157 53.0431 38.3705 52.3507 38.9121 51.4521C39.4599 50.5535 39.7334 49.4941 39.7334 48.2754V35.0908H35.7822Z"/>
</svg>
