<svg width="60" height="60" viewBox="0 0 60 60" fill="CurrentColor" xmlns="http://www.w3.org/2000/svg">
<path d="M26.975 25.3137C25.9434 25.8436 25.1116 26.6336 24.5847 27.584C24.0579 28.5344 23.8597 29.6025 24.0152 30.6531C24.1707 31.7037 24.6729 32.6897 25.4583 33.4864C26.2437 34.2831 27.277 34.8547 28.4276 35.1289C29.5782 35.4032 30.7944 35.3677 31.9223 35.0271C33.0503 34.6864 34.0394 34.0559 34.7645 33.2151C35.4896 32.3744 35.9182 31.3613 35.996 30.3039C36.0739 29.2465 35.7975 28.1923 35.2019 27.2746C34.4031 26.0441 33.0877 25.1463 31.5449 24.7785C30.0021 24.4108 28.3582 24.6033 26.975 25.3137ZM53.9689 31.1267C53.5735 30.7247 53.1563 30.3217 52.7173 29.9175C53.0239 29.6308 53.3207 29.3443 53.6076 29.058C59.0228 23.6452 61.3084 18.2169 59.1906 14.9535C57.1599 11.8245 51.1193 10.892 43.557 12.2001C42.8122 12.3297 42.0714 12.476 41.3347 12.6388C41.1937 12.2063 41.0437 11.7763 40.8848 11.3488C38.3193 4.47125 34.1751 -0.00236905 29.9394 9.41205e-07C25.8778 0.00165094 21.9523 4.19126 19.4481 10.6725C19.2017 11.3118 18.9738 11.9566 18.7643 12.6066C18.2718 12.4991 17.7772 12.3998 17.2805 12.3087C9.30177 10.8514 2.87535 11.8112 0.761715 15.0765C-1.26501 18.2078 0.854554 23.3259 5.91625 28.4928C6.41825 29.004 6.93445 29.5038 7.46486 29.9921C6.83958 30.5651 6.24748 31.1377 5.6956 31.7072C0.75659 36.8012 -1.24178 41.8356 0.781679 44.9534C2.87144 48.1738 9.20741 49.2265 16.9193 47.8764C17.5443 47.7662 18.1658 47.6422 18.7839 47.5044C19.0103 48.2076 19.2587 48.9046 19.529 49.5954C22.0222 55.9466 25.9257 60.0013 29.9729 60C34.1526 59.9978 38.3426 55.6414 40.8813 49.0238C41.0818 48.5008 41.2715 47.9577 41.4514 47.3985C42.2498 47.5752 43.0534 47.732 43.8621 47.8689C51.2924 49.1195 57.191 48.1359 59.2108 45.0159C61.2964 41.7931 59.146 36.3879 53.9688 31.1267H53.9689ZM3.2585 16.3555C4.55973 14.3455 9.81162 13.5613 16.7006 14.8195C17.1409 14.9 17.5887 14.99 18.0441 15.0895C17.3715 17.7363 16.8969 20.4198 16.6235 23.1225C14.1378 24.6781 11.7678 26.3753 9.52859 28.2032C9.03522 27.7493 8.55503 27.2844 8.08802 26.8085L8.08822 26.8087C3.75126 22.3816 2.0371 18.2424 3.2585 16.3555ZM16.3653 33.5397C14.6436 32.3799 13.0435 31.1917 11.5912 29.9967C13.0425 28.8091 14.6436 27.6249 16.3618 26.4683C16.3001 27.6466 16.2695 28.8258 16.27 30.0059C16.271 31.1842 16.3027 32.3622 16.3653 33.5397ZM16.3633 45.3615C13.4404 45.9397 10.4229 46.0344 7.46149 45.6409C6.64967 45.5847 5.85944 45.3809 5.13963 45.0423C4.41982 44.7036 3.78572 44.2373 3.27651 43.672C2.04877 41.78 3.6534 37.738 7.87736 33.3813C8.4084 32.8353 8.95685 32.3036 9.52272 31.7861C11.7623 33.6237 14.1361 35.3275 16.6285 36.8863C16.9057 39.6235 17.3858 42.3414 18.0658 45.0223C17.5015 45.1478 16.934 45.2609 16.3633 45.3615ZM40.3102 21.2435C39.1791 20.6095 38.0341 19.9958 36.8751 19.4025C35.7346 18.8185 34.5804 18.2565 33.4125 17.7163C35.4122 16.9683 37.378 16.3295 39.2757 15.8089C39.723 17.6038 40.0683 19.4176 40.3102 21.2435ZM22.1729 11.5056C24.3184 5.95219 27.4931 2.56403 29.941 2.5631C32.548 2.56199 35.9352 6.21787 38.1502 12.156C38.294 12.5431 38.43 12.9323 38.5582 13.3238C35.6483 14.1267 32.8013 15.1 30.0359 16.2374C27.2821 15.0866 24.444 14.1025 21.5412 13.2916C21.7353 12.6917 21.9458 12.0964 22.1729 11.5056ZM20.8227 15.777C22.8022 16.3313 24.749 16.9741 26.6556 17.7029C24.2932 18.7875 21.9917 19.9689 19.7514 21.2471C20.0221 19.3331 20.3822 17.4993 20.8227 15.777ZM19.7563 38.7589C20.8736 39.3952 22.0071 40.0079 23.157 40.5971C24.33 41.1979 25.5185 41.7734 26.7227 42.3238C24.8015 43.0778 22.838 43.7436 20.84 44.3185C20.3944 42.5723 20.0303 40.7062 19.7563 38.7589ZM38.1543 48.1954C37.2572 50.7368 35.8419 53.1096 33.9792 55.1952L33.979 55.1953C33.5187 55.7928 32.9255 56.2999 32.2362 56.6853C31.5469 57.0708 30.7761 57.3264 29.9713 57.4363C27.5156 57.4376 24.3813 54.1813 22.2491 48.75C21.998 48.1078 21.767 47.4599 21.5561 46.806C24.4728 45.9689 27.3223 44.9569 30.0851 43.7769C32.8733 44.9217 35.7429 45.9023 38.6755 46.7124C38.5154 47.2104 38.3417 47.7047 38.1543 48.1954ZM39.3759 44.2228C37.4564 43.6948 35.4621 43.0452 33.4335 42.2863C34.5771 41.7509 35.729 41.1854 36.8891 40.59C38.0796 39.9784 39.2398 39.3515 40.3696 38.7093C40.1446 40.5611 39.8129 42.4013 39.3759 44.2229V44.2228ZM40.8809 29.9948C40.8834 31.8167 40.8195 33.6371 40.6891 35.4561C39.0276 36.4564 37.2736 37.4331 35.4486 38.3704C33.6311 39.3038 31.8304 40.1617 30.064 40.9381C28.2051 40.1456 26.3821 39.2916 24.595 38.3761C22.8179 37.4661 21.0815 36.4971 19.3859 35.4691C19.2309 33.6507 19.1528 31.8289 19.1517 30.0039L19.1521 30.0045C19.1507 28.1808 19.227 26.3589 19.3812 24.539C21.0422 23.5299 22.7835 22.554 24.5838 21.6293C26.3925 20.7002 28.2158 19.846 30.029 19.0718C31.865 19.8656 33.6678 20.7162 35.4375 21.6238C37.2134 22.5318 38.9546 23.4905 40.6611 24.4998C40.8077 26.3287 40.881 28.1603 40.8811 29.9948H40.8809ZM44.1073 14.7163C50.5865 13.5952 55.4718 14.3494 56.6956 16.235C57.9993 18.2438 56.1308 22.6805 51.4557 27.354L51.4555 27.3542C51.1972 27.612 50.9292 27.8709 50.6515 28.1309C48.3735 26.2991 45.9579 24.6073 43.4215 23.0674C43.1655 20.3943 42.7088 17.7394 42.0542 15.1206C42.7518 14.9679 43.4362 14.8332 44.1073 14.7163ZM43.6693 26.3704C45.3801 27.4816 47.025 28.6711 48.5974 29.9339C47.032 31.2175 45.3923 32.4275 43.6849 33.5588C43.7372 32.371 43.7629 31.1826 43.7621 29.9936C43.7615 28.7856 43.7305 27.5779 43.6693 26.3704ZM56.7135 43.7366C55.4878 45.6301 50.7518 46.4197 44.3973 45.3501C43.6691 45.2278 42.9218 45.0823 42.1556 44.9134C42.7944 42.2609 43.2309 39.5731 43.4622 36.8682C45.9943 35.3014 48.4023 33.5814 50.669 31.7206C51.0656 32.0871 51.4429 32.452 51.8008 32.8152V32.815C53.8278 34.7756 55.4317 37.0514 56.5324 39.5287C56.8844 40.1818 57.082 40.8922 57.1132 41.616C57.1444 42.3397 57.0083 43.0615 56.7135 43.7366Z"/>
</svg>
