<svg width="60" height="60" viewBox="0 0 60 60" fill="currentColor" xmlns="http://www.w3.org/2000/svg">
<path d="M55 0C57.7614 0 60 2.23858 60 5V55C60 57.7614 57.7614 60 55 60H5C2.23858 60 8.05346e-08 57.7614 0 55V5C0 2.23858 2.23858 8.0532e-08 5 0H55ZM51.3623 34.832C49.9836 34.8321 48.7522 35.0726 47.6689 35.5527C46.5858 36.0328 45.7329 36.7002 45.1113 37.5557C44.4958 38.4112 44.1911 39.4118 44.1973 40.5566C44.1911 41.9538 44.6501 43.0649 45.5732 43.8896C46.4965 44.7145 47.7554 45.3212 49.3496 45.709L51.4082 46.2256C52.0975 46.3918 52.6794 46.5772 53.1533 46.7803C53.6334 46.9834 53.997 47.2293 54.2432 47.5186C54.4955 47.8078 54.6221 48.1652 54.6221 48.5898C54.622 49.0452 54.483 49.4481 54.2061 49.7988C53.9291 50.1497 53.5379 50.4241 53.0332 50.6211C52.5348 50.8179 51.9472 50.916 51.2705 50.916C50.5811 50.916 49.9619 50.8118 49.4141 50.6025C48.8725 50.3871 48.4385 50.0699 48.1123 49.6514C47.7923 49.2267 47.6105 48.6974 47.5674 48.0635H43.6992C43.73 49.4237 44.0597 50.5651 44.6875 51.4883C45.3215 52.4054 46.2017 53.0986 47.3281 53.5664C48.4606 54.0341 49.7901 54.2676 51.3164 54.2676C52.8552 54.2676 54.1693 54.0368 55.2588 53.5752C56.3544 53.1074 57.1919 52.4517 57.7705 51.6084C58.3551 50.759 58.6501 49.7557 58.6562 48.5986C58.6501 47.8108 58.5058 47.1123 58.2227 46.5029C57.9457 45.8936 57.5545 45.3644 57.0498 44.915C56.5451 44.4657 55.9482 44.0871 55.2588 43.7793C54.5694 43.4715 53.8121 43.2247 52.9873 43.04L51.2891 42.6338C50.8767 42.5415 50.4882 42.431 50.125 42.3018C49.762 42.1664 49.442 42.0095 49.165 41.8311C48.8882 41.6465 48.6698 41.428 48.5098 41.1758C48.3559 40.9234 48.2846 40.6276 48.2969 40.2891C48.2969 39.8828 48.4145 39.5193 48.6484 39.1992C48.8884 38.8795 49.2328 38.6306 49.6816 38.4521C50.131 38.2675 50.6825 38.1748 51.335 38.1748C52.295 38.1748 53.0552 38.3807 53.6152 38.793C54.1754 39.2054 54.4925 39.7845 54.5664 40.5293H58.3984C58.38 39.4029 58.0779 38.4113 57.4932 37.5557C56.9084 36.7002 56.0895 36.0328 55.0371 35.5527C53.9907 35.0726 52.7657 34.832 51.3623 34.832ZM26.2207 35.0908V38.3867H32.0098V54H35.9619V38.3867H41.751V35.0908H26.2207Z"/>
</svg>
